<mxfile host="Electron" agent="Mozilla/5.0 (Macintosh; Intel Mac OS X 10_15_7) AppleWebKit/537.36 (KHTML, like Gecko) draw.io/24.7.17 Chrome/128.0.6613.36 Electron/32.0.1 Safari/537.36" version="24.7.17">
  <diagram name="Seite-1" id="8FCnJ7Aa_UyaoFD9M5lD">
    <mxGraphModel dx="897" dy="619" grid="1" gridSize="10" guides="1" tooltips="1" connect="1" arrows="1" fold="1" page="1" pageScale="1" pageWidth="1169" pageHeight="827" math="0" shadow="0">
      <root>
        <mxCell id="0" />
        <mxCell id="1" parent="0" />
        <mxCell id="R05MBLvMYD-WDWXhBTXX-32" value="Semantic Routing Network" style="rounded=0;whiteSpace=wrap;html=1;dashed=1;dashPattern=12 12;fillColor=#b3b3b3;labelPosition=center;verticalLabelPosition=top;align=center;verticalAlign=bottom;strokeColor=none;" vertex="1" parent="1">
          <mxGeometry x="740" y="400" width="280" height="110" as="geometry" />
        </mxCell>
        <mxCell id="R05MBLvMYD-WDWXhBTXX-31" value="Semantic Routing Network" style="rounded=0;whiteSpace=wrap;html=1;dashed=1;dashPattern=12 12;fillColor=#b3b3b3;labelPosition=center;verticalLabelPosition=top;align=center;verticalAlign=bottom;strokeColor=none;" vertex="1" parent="1">
          <mxGeometry x="740" y="230" width="280" height="110" as="geometry" />
        </mxCell>
        <mxCell id="R05MBLvMYD-WDWXhBTXX-1" value="Internet" style="ellipse;shape=cloud;whiteSpace=wrap;html=1;fillColor=#8da0cb;" vertex="1" parent="1">
          <mxGeometry x="510" y="237.5" width="180" height="145" as="geometry" />
        </mxCell>
        <mxCell id="R05MBLvMYD-WDWXhBTXX-3" value="Router 1" style="rounded=1;whiteSpace=wrap;html=1;fillColor=#fc8d62;" vertex="1" parent="1">
          <mxGeometry x="760" y="250" width="120" height="60" as="geometry" />
        </mxCell>
        <mxCell id="R05MBLvMYD-WDWXhBTXX-8" style="edgeStyle=orthogonalEdgeStyle;rounded=0;orthogonalLoop=1;jettySize=auto;html=1;exitX=0;exitY=0.5;exitDx=0;exitDy=0;entryX=1;entryY=0.5;entryDx=0;entryDy=0;" edge="1" parent="1" source="R05MBLvMYD-WDWXhBTXX-5" target="R05MBLvMYD-WDWXhBTXX-3">
          <mxGeometry relative="1" as="geometry" />
        </mxCell>
        <mxCell id="R05MBLvMYD-WDWXhBTXX-5" value="Host 1" style="rounded=1;whiteSpace=wrap;html=1;fillColor=#A6D854;" vertex="1" parent="1">
          <mxGeometry x="930" y="240" width="70" height="20" as="geometry" />
        </mxCell>
        <mxCell id="R05MBLvMYD-WDWXhBTXX-9" style="edgeStyle=orthogonalEdgeStyle;rounded=0;orthogonalLoop=1;jettySize=auto;html=1;exitX=0;exitY=0.5;exitDx=0;exitDy=0;" edge="1" parent="1" source="R05MBLvMYD-WDWXhBTXX-6">
          <mxGeometry relative="1" as="geometry">
            <mxPoint x="880" y="280.33333333333337" as="targetPoint" />
          </mxGeometry>
        </mxCell>
        <mxCell id="R05MBLvMYD-WDWXhBTXX-6" value="Host 2" style="rounded=1;whiteSpace=wrap;html=1;fillColor=#A6D854;" vertex="1" parent="1">
          <mxGeometry x="930" y="270" width="70" height="20" as="geometry" />
        </mxCell>
        <mxCell id="R05MBLvMYD-WDWXhBTXX-10" style="edgeStyle=orthogonalEdgeStyle;rounded=0;orthogonalLoop=1;jettySize=auto;html=1;exitX=0;exitY=0.5;exitDx=0;exitDy=0;entryX=1;entryY=0.5;entryDx=0;entryDy=0;" edge="1" parent="1" source="R05MBLvMYD-WDWXhBTXX-7" target="R05MBLvMYD-WDWXhBTXX-3">
          <mxGeometry relative="1" as="geometry" />
        </mxCell>
        <mxCell id="R05MBLvMYD-WDWXhBTXX-7" value="Host 3" style="rounded=1;whiteSpace=wrap;html=1;fillColor=#A6D854;" vertex="1" parent="1">
          <mxGeometry x="930" y="300" width="70" height="20" as="geometry" />
        </mxCell>
        <mxCell id="R05MBLvMYD-WDWXhBTXX-12" value="Router 2" style="rounded=1;whiteSpace=wrap;html=1;fillColor=#FC8D62;" vertex="1" parent="1">
          <mxGeometry x="760" y="420" width="120" height="60" as="geometry" />
        </mxCell>
        <mxCell id="R05MBLvMYD-WDWXhBTXX-13" style="edgeStyle=orthogonalEdgeStyle;rounded=0;orthogonalLoop=1;jettySize=auto;html=1;exitX=0;exitY=0.5;exitDx=0;exitDy=0;entryX=1;entryY=0.5;entryDx=0;entryDy=0;" edge="1" parent="1" source="R05MBLvMYD-WDWXhBTXX-14" target="R05MBLvMYD-WDWXhBTXX-12">
          <mxGeometry relative="1" as="geometry" />
        </mxCell>
        <mxCell id="R05MBLvMYD-WDWXhBTXX-14" value="Host 4" style="rounded=1;whiteSpace=wrap;html=1;fillColor=#A6D854;" vertex="1" parent="1">
          <mxGeometry x="930" y="410" width="70" height="20" as="geometry" />
        </mxCell>
        <mxCell id="R05MBLvMYD-WDWXhBTXX-15" style="edgeStyle=orthogonalEdgeStyle;rounded=0;orthogonalLoop=1;jettySize=auto;html=1;exitX=0;exitY=0.5;exitDx=0;exitDy=0;" edge="1" parent="1" source="R05MBLvMYD-WDWXhBTXX-16">
          <mxGeometry relative="1" as="geometry">
            <mxPoint x="880" y="450.33333333333337" as="targetPoint" />
          </mxGeometry>
        </mxCell>
        <mxCell id="R05MBLvMYD-WDWXhBTXX-16" value="Host 5" style="rounded=1;whiteSpace=wrap;html=1;fillColor=#A6D854;" vertex="1" parent="1">
          <mxGeometry x="930" y="440" width="70" height="20" as="geometry" />
        </mxCell>
        <mxCell id="R05MBLvMYD-WDWXhBTXX-34" style="edgeStyle=orthogonalEdgeStyle;rounded=0;orthogonalLoop=1;jettySize=auto;html=1;exitX=0;exitY=0.5;exitDx=0;exitDy=0;entryX=1;entryY=0.5;entryDx=0;entryDy=0;" edge="1" parent="1" source="R05MBLvMYD-WDWXhBTXX-18" target="R05MBLvMYD-WDWXhBTXX-12">
          <mxGeometry relative="1" as="geometry" />
        </mxCell>
        <mxCell id="R05MBLvMYD-WDWXhBTXX-18" value="Host 6" style="rounded=1;whiteSpace=wrap;html=1;fillColor=#A6D854;" vertex="1" parent="1">
          <mxGeometry x="930" y="470" width="70" height="20" as="geometry" />
        </mxCell>
        <mxCell id="R05MBLvMYD-WDWXhBTXX-19" value="Router 3" style="rounded=1;whiteSpace=wrap;html=1;fillColor=#FC8D62;" vertex="1" parent="1">
          <mxGeometry x="520" y="410" width="80" height="40" as="geometry" />
        </mxCell>
        <mxCell id="R05MBLvMYD-WDWXhBTXX-20" value="Semantic Routing" style="rounded=0;whiteSpace=wrap;html=1;fillColor=#E78AC3;" vertex="1" parent="1">
          <mxGeometry x="770" y="310" width="100" height="20" as="geometry" />
        </mxCell>
        <mxCell id="R05MBLvMYD-WDWXhBTXX-21" value="Semantic Routing" style="rounded=0;whiteSpace=wrap;html=1;fillColor=#E78AC3;" vertex="1" parent="1">
          <mxGeometry x="770" y="480" width="100" height="20" as="geometry" />
        </mxCell>
        <mxCell id="R05MBLvMYD-WDWXhBTXX-22" value="" style="endArrow=none;dashed=1;html=1;rounded=0;entryX=0;entryY=0.5;entryDx=0;entryDy=0;exitX=0;exitY=0.5;exitDx=0;exitDy=0;" edge="1" parent="1" source="R05MBLvMYD-WDWXhBTXX-21" target="R05MBLvMYD-WDWXhBTXX-20">
          <mxGeometry width="50" height="50" relative="1" as="geometry">
            <mxPoint x="710" y="370" as="sourcePoint" />
            <mxPoint x="760" y="320" as="targetPoint" />
            <Array as="points">
              <mxPoint x="730" y="490" />
              <mxPoint x="730" y="320" />
            </Array>
          </mxGeometry>
        </mxCell>
        <mxCell id="R05MBLvMYD-WDWXhBTXX-23" value="synchronise semantic hostnames / IP addresses" style="edgeLabel;html=1;align=center;verticalAlign=middle;resizable=0;points=[];" vertex="1" connectable="0" parent="R05MBLvMYD-WDWXhBTXX-22">
          <mxGeometry x="0.2293" y="1" relative="1" as="geometry">
            <mxPoint x="121" y="-16" as="offset" />
          </mxGeometry>
        </mxCell>
        <mxCell id="R05MBLvMYD-WDWXhBTXX-24" style="edgeStyle=orthogonalEdgeStyle;rounded=0;orthogonalLoop=1;jettySize=auto;html=1;exitX=0;exitY=0.5;exitDx=0;exitDy=0;entryX=0.875;entryY=0.5;entryDx=0;entryDy=0;entryPerimeter=0;" edge="1" parent="1" source="R05MBLvMYD-WDWXhBTXX-3" target="R05MBLvMYD-WDWXhBTXX-1">
          <mxGeometry relative="1" as="geometry" />
        </mxCell>
        <mxCell id="R05MBLvMYD-WDWXhBTXX-25" style="edgeStyle=orthogonalEdgeStyle;rounded=0;orthogonalLoop=1;jettySize=auto;html=1;exitX=0;exitY=0.5;exitDx=0;exitDy=0;entryX=0.8;entryY=0.8;entryDx=0;entryDy=0;entryPerimeter=0;" edge="1" parent="1" source="R05MBLvMYD-WDWXhBTXX-12" target="R05MBLvMYD-WDWXhBTXX-1">
          <mxGeometry relative="1" as="geometry" />
        </mxCell>
        <mxCell id="R05MBLvMYD-WDWXhBTXX-35" style="edgeStyle=orthogonalEdgeStyle;rounded=0;orthogonalLoop=1;jettySize=auto;html=1;exitX=0.5;exitY=0;exitDx=0;exitDy=0;entryX=0.5;entryY=1;entryDx=0;entryDy=0;" edge="1" parent="1" source="R05MBLvMYD-WDWXhBTXX-27" target="R05MBLvMYD-WDWXhBTXX-19">
          <mxGeometry relative="1" as="geometry" />
        </mxCell>
        <mxCell id="R05MBLvMYD-WDWXhBTXX-27" value="Host 7" style="rounded=1;whiteSpace=wrap;html=1;fillColor=#A6D854;" vertex="1" parent="1">
          <mxGeometry x="530" y="470" width="60" height="20" as="geometry" />
        </mxCell>
        <mxCell id="R05MBLvMYD-WDWXhBTXX-36" style="edgeStyle=orthogonalEdgeStyle;rounded=0;orthogonalLoop=1;jettySize=auto;html=1;exitX=0.5;exitY=0;exitDx=0;exitDy=0;entryX=0.31;entryY=0.8;entryDx=0;entryDy=0;entryPerimeter=0;" edge="1" parent="1" source="R05MBLvMYD-WDWXhBTXX-19" target="R05MBLvMYD-WDWXhBTXX-1">
          <mxGeometry relative="1" as="geometry" />
        </mxCell>
      </root>
    </mxGraphModel>
  </diagram>
</mxfile>
